# Blender 4.4.1
# www.blender.org
mtllib SelectAxis.mtl
o 平面
v -1.000000 3.049200 3.002000
v 1.000000 3.049200 3.002000
v -1.000000 3.049200 -3.002000
v 1.000000 3.049200 -3.002000
v -1.000000 -3.002000 3.049200
v 1.000000 -3.002000 3.049200
v -1.000000 3.002000 3.049200
v 1.000000 3.002000 3.049200
v -1.000000 3.002000 -3.049200
v 1.000000 3.002000 -3.049200
v -1.000000 -3.002000 -3.049200
v 1.000000 -3.002000 -3.049200
v -1.000000 -3.049201 -3.002000
v 1.000000 -3.049201 -3.002000
v -1.000000 -3.049199 3.002000
v 1.000000 -3.049199 3.002000
vn -0.0000 1.0000 -0.0000
vn -0.0000 -0.0000 1.0000
vn -0.0000 -0.0000 -1.0000
vn -0.0000 -1.0000 -0.0000
vt 1.000000 0.000000
vt 0.000000 1.000000
vt 0.000000 0.000000
vt 1.000000 1.000000
s 0
usemtl Material
f 2/1/1 3/2/1 1/3/1
f 6/1/2 7/2/2 5/3/2
f 10/1/3 11/2/3 9/3/3
f 14/1/4 15/2/4 13/3/4
f 2/1/1 4/4/1 3/2/1
f 6/1/2 8/4/2 7/2/2
f 10/1/3 12/4/3 11/2/3
f 14/1/4 16/4/4 15/2/4
