# Blender 4.1.1
# www.blender.org
mtllib cone.mtl
o 円錐.002
v -1.000000 0.071429 1.000000
v -1.000000 -0.071429 1.000000
v -1.000000 0.071429 -1.000000
v 1.000000 0.071429 1.000000
v -1.000000 -0.071429 -1.000000
v 1.000000 -0.071429 -1.000000
v 1.000000 -0.071429 1.000000
v 1.000000 0.071429 -1.000000
v -0.901244 0.071429 0.179268
v -0.918901 0.071429 -0.000000
v -0.901244 0.071429 -0.179268
v -0.764039 0.071429 -0.510514
v -0.848954 0.071429 -0.351648
v -0.764039 0.071429 0.510514
v -0.848954 0.071429 0.351648
v -0.649761 0.071429 0.649761
v -0.179268 0.071429 0.901245
v -0.351648 0.071429 0.848954
v -0.510514 0.071429 0.764039
v 0.351648 0.071429 0.848954
v 0.179268 0.071429 0.901245
v 0.510514 0.071429 0.764039
v 0.649761 0.071429 0.649762
v 0.649761 0.071429 0.649761
v -0.000000 0.071429 0.918901
v -0.649761 0.071429 -0.649761
v -0.971301 -0.071429 0.193203
v -0.990330 -0.071429 -0.000000
v -0.971300 -0.071429 -0.193203
v -0.823429 -0.071428 -0.550197
v -0.914946 -0.071429 -0.378982
v -0.823430 -0.071429 0.550197
v -0.914946 -0.071429 0.378982
v -0.700269 -0.071429 0.700269
v -0.550197 -0.071429 -0.823429
v -0.378982 -0.071429 -0.914946
v -0.193203 -0.071429 -0.971300
v 0.700269 -0.071428 -0.700269
v 0.550197 -0.071429 -0.823429
v 0.193203 -0.071429 -0.971300
v 0.000000 -0.071429 -0.990330
v 0.378982 -0.071429 -0.914946
v -0.700269 -0.071428 -0.700269
v -0.700269 -0.071429 0.700269
v -0.378982 -0.071429 0.914946
v -0.550198 -0.071429 0.823429
v -0.193204 -0.071429 0.971301
v 0.550197 -0.071429 0.823430
v 0.378982 -0.071429 0.914946
v 0.193203 -0.071429 0.971301
v -0.000000 -0.071429 0.990330
v 0.990330 -0.071429 0.000000
v 0.971300 -0.071429 -0.193203
v 0.971301 -0.071429 0.193204
v 0.914946 -0.071429 0.378983
v 0.823429 -0.071428 -0.550197
v 0.700269 -0.071428 -0.700269
v 0.914946 -0.071429 -0.378982
v 0.823429 -0.071429 0.550198
v 0.700269 -0.071429 0.700269
v -0.351648 0.071429 -0.848954
v -0.510514 0.071429 -0.764039
v -0.649761 0.071429 -0.649761
v 0.179268 0.071429 -0.901244
v 0.351648 0.071429 -0.848954
v 0.510514 0.071429 -0.764039
v -0.179268 0.071429 -0.901244
v 0.000000 0.071429 -0.918901
v 0.918901 0.071429 0.000000
v 0.901244 0.071429 -0.179268
v 0.901244 0.071429 0.179269
v 0.848954 0.071429 0.351648
v 0.764039 0.071429 -0.510514
v 0.649761 0.071429 -0.649761
v 0.848954 0.071429 -0.351648
v 0.764039 0.071429 0.510514
v -0.000000 -0.071135 1.000000
v -0.195090 -0.071135 0.980785
v 0.000000 1.928865 -0.000000
v 0.195090 -0.071135 0.980785
v 0.382683 -0.071135 0.923880
v 0.555570 -0.071135 0.831470
v 0.183806 -0.071135 0.924058
v 0.245498 -0.071135 0.905344
v 0.119649 -0.071135 0.930377
v 0.359960 -0.071135 0.870623
v 0.281431 -0.071135 0.894444
v 0.183806 -0.071135 0.924058
v -0.000000 -0.071135 0.942161
v 0.360549 -0.071135 0.870444
v 0.000000 1.813187 -0.000000
v 0.523436 -0.071135 0.783379
v 0.666209 -0.071135 0.666209
v 0.666599 -0.071135 0.665733
v 0.831470 -0.071135 0.555570
v 0.783379 -0.071135 0.523437
v 0.870444 -0.071135 0.360549
v 0.894444 -0.071135 0.281431
v 0.980785 -0.071135 0.195090
v 0.924058 -0.071135 0.183806
v 0.942161 -0.071135 0.000000
v 0.930377 -0.071135 -0.119649
v 0.980785 -0.071135 -0.195090
v 0.924058 -0.071135 -0.183806
v 0.905344 -0.071135 -0.245498
v 0.894444 -0.071135 -0.281431
v 0.870623 -0.071135 -0.359960
v 0.870444 -0.071135 -0.360549
v 0.783379 -0.071135 -0.523436
v 0.831470 -0.071135 -0.555570
v 0.707107 -0.071135 -0.707107
v 0.555570 -0.071135 -0.831470
v 0.923880 -0.071135 -0.382683
v 0.666209 -0.071135 -0.666209
v 0.665733 -0.071135 -0.666599
v 0.523437 -0.071135 -0.783379
v 0.360549 -0.071135 -0.870444
v 0.281431 -0.071135 -0.894444
v 0.195090 -0.071135 -0.980785
v 0.183806 -0.071135 -0.924057
v 0.000000 -0.071135 -0.942161
v -0.119649 -0.071135 -0.930377
v -0.195090 -0.071135 -0.980785
v -0.382683 -0.071135 -0.923880
v -0.183806 -0.071135 -0.924058
v -0.555570 -0.071135 -0.831470
v 0.000000 -0.071135 -1.000000
v -0.245498 -0.071135 -0.905344
v -0.359960 -0.071135 -0.870623
v -0.281431 -0.071135 -0.894444
v -0.360549 -0.071135 -0.870444
v -0.183806 -0.071135 -0.924058
v -0.523436 -0.071135 -0.783379
v -0.666209 -0.071135 -0.666209
v -0.666599 -0.071135 -0.665733
v -0.831470 -0.071135 -0.555570
v -0.783379 -0.071135 -0.523436
v -0.870444 -0.071135 -0.360549
v -0.894444 -0.071135 -0.281431
v -0.980785 -0.071135 -0.195090
v -0.924058 -0.071135 -0.183806
v -0.942161 -0.071135 -0.000000
v -0.930377 -0.071135 0.119649
v -0.980785 -0.071135 0.195090
v -0.924058 -0.071135 0.183806
v -0.905344 -0.071135 0.245498
v -0.894444 -0.071135 0.281431
v -0.870623 -0.071135 0.359960
v -0.870444 -0.071135 0.360549
v -0.783379 -0.071135 0.523436
v -0.831470 -0.071135 0.555570
v -0.707107 -0.071135 0.707107
v -0.555570 -0.071135 0.831470
v -0.923880 -0.071135 0.382683
v -0.666209 -0.071135 0.666209
v -0.665733 -0.071135 0.666599
v -0.523437 -0.071135 0.783379
v -0.360549 -0.071135 0.870444
v -0.281431 -0.071135 0.894444
v -0.183806 -0.071135 0.924058
v -0.382683 -0.071135 0.923880
v -1.000000 -0.071135 -0.000000
v -0.923880 -0.071135 -0.382683
v -0.707107 -0.071135 -0.707107
v 0.382683 -0.071135 -0.923880
v 1.000000 -0.071135 0.000000
v 0.923880 -0.071135 0.382683
v 0.707107 -0.071135 0.707107
vn 0.0878 -0.4455 -0.8910
vn 0.2599 -0.4455 -0.8567
vn 0.4220 -0.4455 -0.7896
vn 0.5680 -0.4455 -0.6921
vn 0.6921 -0.4455 -0.5680
vn 0.7896 -0.4455 -0.4220
vn 0.8567 -0.4455 -0.2599
vn 0.8910 -0.4455 -0.0878
vn 0.8910 -0.4455 0.0878
vn 0.8567 -0.4455 0.2599
vn 0.7896 -0.4455 0.4220
vn -0.0000 -0.0000 1.0000
vn -0.0000 1.0000 0.0001
vn -0.0000 1.0000 -0.0000
vn 0.5680 -0.4455 0.6921
vn 0.4220 -0.4455 0.7896
vn 0.2599 -0.4455 0.8567
vn 0.0878 -0.4455 0.8910
vn -0.0878 -0.4455 0.8910
vn -0.2599 -0.4455 0.8567
vn -0.4220 -0.4455 0.7896
vn -0.7148 -0.3127 0.6255
vn -0.7149 -0.3126 0.6255
vn -0.6921 -0.4455 0.5680
vn -0.7896 -0.4455 0.4220
vn -0.8567 -0.4455 0.2599
vn -0.8910 -0.4455 0.0878
vn -0.8910 -0.4455 -0.0878
vn -0.8567 -0.4455 -0.2599
vn -0.7896 -0.4455 -0.4220
vn -0.8186 -0.5744 -0.0000
vn -0.5680 -0.4455 -0.6921
vn -0.4220 -0.4455 -0.7896
vn -0.2599 -0.4455 -0.8567
vn -0.0878 -0.4455 -0.8910
vn -0.0000 -0.0000 -1.0000
vn -0.0000 1.0000 -0.0001
vn 0.6921 -0.4455 0.5680
vn -0.5680 -0.4455 0.6921
vn -0.6921 -0.4455 -0.5680
vn -0.0000 -1.0000 -0.0000
vn -0.0878 0.4455 0.8910
vn 0.0878 0.4455 0.8910
vn 0.2599 0.4455 0.8567
vn -0.0000 -1.0000 0.0001
vn -0.2603 -0.4455 -0.8566
vn -0.0000 -1.0000 -0.0001
vn 0.4061 -0.9138 -0.0000
vn -0.8566 -0.4455 0.2602
vn 0.6921 0.4455 -0.5680
vn 0.7896 0.4455 -0.4220
vn -0.1240 -0.9923 -0.0000
vn -0.2599 0.4455 -0.8567
vn -0.0878 0.4455 -0.8910
vn -0.0000 -0.3904 0.9206
vn 0.2603 -0.4455 0.8566
vn 0.0587 -0.9983 -0.0000
vn 0.8566 -0.4455 -0.2602
vn -0.6921 0.4455 0.5680
vn -0.7896 0.4455 0.4220
vn -0.8567 0.4455 0.2599
vn -0.4220 0.4455 0.7896
vn -0.5680 0.4455 0.6921
vn -0.2599 0.4455 0.8567
vn -0.8910 0.4455 0.0878
vn -0.8910 0.4455 -0.0878
vn -0.8567 0.4455 -0.2599
vn -0.7896 0.4455 -0.4220
vn -0.6921 0.4455 -0.5680
vn -0.5680 0.4455 -0.6921
vn 0.0878 0.4455 -0.8910
vn -0.4220 0.4455 -0.7896
vn 0.2599 0.4455 -0.8567
vn 0.4220 0.4455 -0.7896
vn 0.8567 0.4455 -0.2599
vn 0.5680 0.4455 -0.6921
vn 0.8910 0.4455 -0.0878
vn 0.8910 0.4455 0.0878
vn 0.8567 0.4455 0.2599
vn 0.7896 0.4455 0.4220
vn 0.6921 0.4455 0.5680
vn 0.5680 0.4455 0.6921
vn -0.0000 -0.3904 -0.9207
vn 0.4220 0.4455 0.7896
vn -1.0000 -0.0000 -0.0000
vn 1.0000 -0.0000 -0.0000
vn -0.0157 0.9999 -0.0000
vn 0.0624 -0.9981 -0.0000
vn 0.0623 -0.9981 -0.0000
vt 0.699577 0.220475
vt 0.689930 0.239153
vt 0.686037 0.225931
vt 0.671644 0.228764
vt 0.672849 0.242221
vt 0.655576 0.242184
vt 0.657078 0.228522
vt 0.638690 0.238448
vt 0.642707 0.225632
vt 0.622900 0.231817
vt 0.629317 0.219832
vt 0.608481 0.222175
vt 0.617210 0.211515
vt 0.596023 0.209724
vt 0.606927 0.200902
vt 0.598646 0.188589
vt 0.579801 0.178735
vt 0.586508 0.194949
vt 0.590390 0.160145
vt 0.576537 0.161407
vt 0.576389 0.143419
vt 0.592909 0.131149
vt 0.592923 0.131154
vt 0.590130 0.144659
vt 0.586269 0.111632
vt 0.598337 0.117975
vt 0.606353 0.105807
vt 0.607903 0.084921
vt 0.616644 0.095537
vt 0.628803 0.087336
vt 0.638389 0.068579
vt 0.642335 0.081869
vt 0.656740 0.079009
vt 0.655614 0.065424
vt 0.671367 0.079037
vt 0.689569 0.069023
vt 0.689582 0.069027
vt 0.685635 0.082083
vt 0.705763 0.075661
vt 0.711447 0.096061
vt 0.699127 0.087903
vt 0.732470 0.097949
vt 0.720158 0.085603
vt 0.729892 0.118921
vt 0.721645 0.106672
vt 0.748560 0.128707
vt 0.735260 0.132644
vt 0.738240 0.147092
vt 0.751721 0.145797
vt 0.738514 0.161754
vt 0.751721 0.162694
vt 0.749468 0.178828
vt 0.735697 0.176556
vt 0.735690 0.176540
vt 0.743206 0.195990
vt 0.730404 0.189410
vt 0.722234 0.201853
vt 0.732932 0.210672
vt 0.720584 0.223065
vt 0.711806 0.212284
vt 0.705914 0.232493
vt 0.638677 0.238444
vt 0.593291 0.174778
vt 0.580203 0.127193
vt 0.595883 0.097320
vt 0.622403 0.075386
vt 0.672771 0.065717
vt 0.741926 0.112615
vt 0.847224 0.776828
vt 0.865228 0.778509
vt 0.882558 0.783669
vt 0.684208 0.408700
vt 0.707984 0.413430
vt 0.672088 0.531766
vt 0.730381 0.422707
vt 0.828679 0.779526
vt 0.811017 0.785789
vt 0.750537 0.436175
vt 0.829352 0.785013
vt 0.864477 0.783800
vt 0.847349 0.782546
vt 0.847343 0.782546
vt 0.853431 0.782880
vt 0.841120 0.783368
vt 0.837513 0.783857
vt 0.829483 0.784980
vt 0.181429 0.705978
vt 0.236640 0.808529
vt 0.236406 0.808643
vt 0.255555 0.795812
vt 0.813360 0.790603
vt 0.271630 0.779655
vt 0.799758 0.799273
vt 0.799707 0.799323
vt 0.783428 0.808079
vt 0.284251 0.760678
vt 0.272334 0.778636
vt 0.787636 0.811404
vt 0.778695 0.825586
vt 0.292934 0.739605
vt 0.776029 0.832609
vt 0.767758 0.839852
vt 0.297347 0.717245
vt 0.295006 0.729615
vt 0.297321 0.694455
vt 0.772787 0.841153
vt 0.770480 0.857250
vt 0.771058 0.867708
vt 0.766497 0.873984
vt 0.292857 0.672106
vt 0.294504 0.679889
vt 0.290073 0.664647
vt 0.771324 0.873239
vt 0.772636 0.878502
vt 0.773384 0.881322
vt 0.288320 0.660356
vt 0.284155 0.651119
vt 0.775282 0.887846
vt 0.284041 0.650884
vt 0.775300 0.887911
vt 0.777899 0.902039
vt 0.781445 0.899755
vt 0.271346 0.631956
vt 0.798026 0.922580
vt 0.786951 0.913300
vt 0.750538 0.627358
vt 0.730381 0.640826
vt 0.767679 0.610216
vt 0.789517 0.909864
vt 0.770816 0.888573
vt 0.255208 0.615862
vt 0.789561 0.909901
vt 0.236245 0.603220
vt 0.254189 0.615157
vt 0.800389 0.919071
vt 0.812232 0.925632
vt 0.215183 0.594513
vt 0.818002 0.927479
vt 0.824201 0.933859
vt 0.192829 0.590074
vt 0.205195 0.592429
vt 0.825098 0.929767
vt 0.838398 0.931403
vt 0.170038 0.590074
vt 0.155426 0.592679
vt 0.847048 0.930887
vt 0.851634 0.934388
vt 0.877502 0.934013
vt 0.864587 0.935475
vt 0.593638 0.627358
vt 0.613794 0.640826
vt 0.636191 0.650103
vt 0.851803 0.930600
vt 0.851807 0.930600
vt 0.864217 0.931659
vt 0.837892 0.935475
vt 0.856103 0.931035
vt 0.858602 0.931239
vt 0.864167 0.931656
vt 0.147429 0.594586
vt 0.147678 0.594510
vt 0.139973 0.597379
vt 0.126217 0.603427
vt 0.126452 0.603313
vt 0.876607 0.930102
vt 0.107303 0.616143
vt 0.091228 0.632300
vt 0.888503 0.925993
vt 0.078607 0.651278
vt 0.090524 0.633320
vt 0.888552 0.925964
vt 0.903233 0.922254
vt 0.069924 0.672350
vt 0.900565 0.918762
vt 0.910811 0.909131
vt 0.065511 0.694710
vt 0.067852 0.682340
vt 0.914641 0.903729
vt 0.923476 0.899323
vt 0.919365 0.896981
vt 0.065537 0.717501
vt 0.925396 0.883034
vt 0.070001 0.739850
vt 0.068354 0.732067
vt 0.927496 0.872979
vt 0.933804 0.867960
vt 0.072785 0.747309
vt 0.928576 0.867410
vt 0.928500 0.861581
vt 0.074537 0.751600
vt 0.928467 0.858154
vt 0.928377 0.850520
vt 0.078703 0.760837
vt 0.928360 0.850389
vt 0.078817 0.761071
vt 0.929871 0.832783
vt 0.924965 0.834430
vt 0.091511 0.780000
vt 0.922257 0.817189
vt 0.911748 0.803379
vt 0.613794 0.422707
vt 0.593637 0.436175
vt 0.918266 0.820303
vt 0.933570 0.850178
vt 0.576496 0.453317
vt 0.918224 0.820248
vt 0.107650 0.796093
vt 0.126613 0.808736
vt 0.108668 0.796798
vt 0.908000 0.807033
vt 0.895320 0.796486
vt 0.147675 0.817443
vt 0.888697 0.792915
vt 0.170029 0.821881
vt 0.157662 0.819526
vt 0.880536 0.788530
vt 0.192820 0.821881
vt 0.563028 0.473473
vt 0.898123 0.792087
vt 0.636190 0.413430
vt 0.659966 0.408700
vt 0.930184 0.884150
vt 0.553751 0.495869
vt 0.549022 0.519646
vt 0.914484 0.911785
vt 0.549022 0.543887
vt 0.553751 0.567663
vt 0.890947 0.929400
vt 0.563028 0.590060
vt 0.576496 0.610216
vt 0.135684 0.599137
vt 0.659967 0.654832
vt 0.684209 0.654832
vt 0.810559 0.929508
vt 0.707985 0.650103
vt 0.781147 0.590060
vt 0.790424 0.567663
vt 0.765447 0.856856
vt 0.795153 0.543887
vt 0.795153 0.519645
vt 0.774028 0.823194
vt 0.790424 0.495869
vt 0.781147 0.473473
vt 0.796125 0.795575
vt 0.767679 0.453316
vt 0.215429 0.817369
vt 0.215180 0.817445
vt 0.222885 0.814577
vt 0.207431 0.819276
vt 0.227174 0.812819
vt 0.281018 0.359422
vt 0.291329 0.353957
vt 0.357528 0.503786
vt 0.214819 0.209593
vt 0.204507 0.215058
vt 0.238547 0.361664
vt 0.243779 0.348409
vt 0.138308 0.065229
vt 0.287895 0.315031
vt 0.304161 0.321295
vt 0.444350 0.293188
vt 0.409005 0.279192
vt 0.413340 0.263060
vt 0.367840 0.498321
vt 0.444350 0.642685
vt 0.434039 0.648150
vt 0.127997 0.070694
vt 0.192586 0.254436
vt 0.176932 0.253533
vt 0.206460 0.260459
vt 0.192604 0.254456
vt 0.146853 0.433098
vt 0.155154 0.398097
vt 0.155171 0.398118
vt 0.170076 0.400252
vt 0.218855 0.268780
vt 0.229426 0.279389
vt 0.183710 0.399865
vt 0.197102 0.396931
vt 0.237737 0.291866
vt 0.209718 0.391484
vt 0.243411 0.305580
vt 0.246290 0.319821
vt 0.221177 0.383594
vt 0.230913 0.373538
vt 0.246402 0.334281
vt 0.366589 0.124769
vt 0.352982 0.166615
vt 0.335095 0.161924
vt 0.316981 0.161639
vt 0.299374 0.165223
vt 0.284506 0.171596
vt 0.271691 0.180466
vt 0.260935 0.191580
vt 0.252555 0.204577
vt 0.246847 0.219011
vt 0.244007 0.234403
vt 0.244147 0.250234
vt 0.247306 0.265896
vt 0.253420 0.280737
vt 0.262373 0.294237
vt 0.273945 0.305823
vt 0.304201 0.321309
vt 0.318638 0.326942
vt 0.334199 0.329390
vt 0.353034 0.166631
vt 0.370154 0.173401
vt 0.349447 0.328395
vt 0.364204 0.324163
vt 0.384925 0.183862
vt 0.397033 0.197157
vt 0.378446 0.316776
vt 0.406142 0.212565
vt 0.391091 0.306568
vt 0.401460 0.293886
vt 0.411894 0.229057
vt 0.414311 0.246124
vt 0.142513 0.393452
vt 0.130784 0.386505
vt 0.120493 0.377460
vt 0.112088 0.366597
vt 0.064614 0.303317
vt 0.105852 0.354090
vt 0.102193 0.340511
vt 0.101279 0.326359
vt 0.103153 0.312184
vt 0.107734 0.298559
vt 0.114843 0.286042
vt 0.124230 0.275136
vt 0.135628 0.266251
vt 0.149210 0.259430
vt 0.163257 0.255200
s 0
usemtl マテリアル.001
f 25/1/1 47/2/1 17/3/1
f 18/4/2 47/2/2 45/5/2
f 18/4/3 46/6/3 19/7/3
f 44/8/4 16/9/4 46/6/4
f 16/9/5 32/10/5 14/11/5
f 14/11/6 33/12/6 15/13/6
f 15/13/7 27/14/7 9/15/7
f 27/14/8 10/16/8 9/15/8
f 29/17/9 10/16/9 28/18/9
f 13/19/10 29/17/10 31/20/10
f 30/21/11 13/19/11 31/20/11
f 63/22/12 26/23/13 12/24/14
f 63/22/15 35/25/15 62/26/15
f 35/25/16 61/27/16 62/26/16
f 61/27/17 37/28/17 67/29/17
f 37/28/18 68/30/18 67/29/18
f 68/30/19 40/31/19 64/32/19
f 40/31/20 65/33/20 64/32/20
f 42/34/21 66/35/21 65/33/21
f 38/36/12 57/37/22 74/38/23
f 56/39/24 74/38/24 57/37/24
f 56/39/25 75/40/25 73/41/25
f 53/42/26 75/40/26 58/43/26
f 53/42/27 69/44/27 70/45/27
f 69/44/28 54/46/28 71/47/28
f 72/48/29 54/46/29 55/49/29
f 76/50/30 55/49/30 59/51/30
f 60/52/31 23/53/31 24/54/31
f 23/53/32 48/55/32 22/56/32
f 20/57/33 48/55/33 49/58/33
f 20/57/34 50/59/34 21/60/34
f 25/1/35 50/59/35 51/61/35
f 25/1/1 51/61/1 47/2/1
f 18/4/2 17/3/2 47/2/2
f 18/4/3 45/5/3 46/6/3
f 16/9/4 19/7/4 46/6/4
f 44/8/36 34/62/14 16/9/37
f 16/9/5 34/62/5 32/10/5
f 14/11/6 32/10/6 33/12/6
f 15/13/7 33/12/7 27/14/7
f 27/14/8 28/18/8 10/16/8
f 29/17/9 11/63/9 10/16/9
f 13/19/10 11/63/10 29/17/10
f 30/21/11 12/24/11 13/19/11
f 12/24/38 30/21/38 63/22/38
f 30/21/38 43/64/38 63/22/38
f 63/22/15 43/64/15 35/25/15
f 35/25/16 36/65/16 61/27/16
f 61/27/17 36/65/17 37/28/17
f 37/28/18 41/66/18 68/30/18
f 68/30/19 41/66/19 40/31/19
f 40/31/20 42/34/20 65/33/20
f 42/34/21 39/67/21 66/35/21
f 74/38/39 66/35/39 38/36/39
f 66/35/39 39/67/39 38/36/39
f 56/39/24 73/41/24 74/38/24
f 56/39/25 58/43/25 75/40/25
f 53/42/26 70/45/26 75/40/26
f 53/42/27 52/68/27 69/44/27
f 69/44/28 52/68/28 54/46/28
f 72/48/29 71/47/29 54/46/29
f 76/50/30 72/48/30 55/49/30
f 24/54/40 76/50/40 59/51/40
f 59/51/40 60/52/40 24/54/40
f 23/53/32 60/52/32 48/55/32
f 20/57/33 22/56/33 48/55/33
f 20/57/34 49/58/34 50/59/34
f 25/1/35 21/60/35 50/59/35
f 80/69/41 77/70/41 78/71/41
f 78/72/42 77/73/42 79/74/42
f 79/74/43 77/73/43 80/75/43
f 81/76/41 80/69/41 82/77/41
f 79/74/44 80/75/44 81/78/44
f 82/77/41 80/69/41 90/79/41
f 89/80/41 80/69/41 78/71/41
f 80/69/41 83/81/12 88/82/45
f 85/83/41 83/81/41 80/69/41
f 80/69/41 84/84/41 87/85/41
f 80/69/41 88/82/41 84/84/41
f 89/80/41 85/83/41 80/69/41
f 80/69/41 86/86/41 90/79/41
f 80/69/41 87/85/41 86/86/41
f 91/87/46 90/88/46 86/89/46
f 91/87/33 92/90/33 90/88/33
f 82/77/41 90/79/41 92/91/41
f 91/87/32 93/92/32 92/90/32
f 82/77/41 92/91/41 93/93/41
f 93/93/41 94/94/41 95/95/41
f 93/92/14 96/96/14 94/97/14
f 93/92/40 91/87/40 96/96/40
f 93/93/41 95/95/41 82/77/41
f 95/95/41 94/94/41 96/98/41
f 96/98/41 97/99/41 95/95/41
f 96/96/30 91/87/30 97/100/30
f 97/99/41 98/101/41 99/102/41
f 97/100/41 100/103/47 98/104/41
f 97/100/29 91/87/29 100/103/29
f 97/99/41 99/102/41 95/95/41
f 100/103/28 91/87/28 101/105/28
f 99/102/41 100/106/41 101/107/41
f 99/102/41 98/101/41 100/106/41
f 102/108/41 103/109/41 101/107/41
f 101/105/48 104/110/48 102/111/48
f 101/105/27 91/87/27 104/110/27
f 103/109/41 99/102/41 101/107/41
f 105/112/26 104/110/26 91/87/26
f 103/109/41 104/113/41 105/114/41
f 103/109/41 102/108/41 104/113/41
f 105/114/41 106/115/41 103/109/41
f 106/116/26 105/112/26 91/87/26
f 107/117/26 106/116/26 91/87/26
f 106/115/41 107/118/41 103/109/41
f 91/87/49 108/119/49 107/117/49
f 103/109/41 107/118/41 108/120/41
f 110/121/41 108/120/41 109/122/41
f 108/119/25 91/87/25 109/123/25
f 110/121/41 103/109/41 108/120/41
f 112/124/41 111/125/41 110/121/41
f 110/126/50 111/127/50 79/74/50
f 113/128/51 110/126/51 79/74/51
f 114/129/41 112/124/41 110/121/41
f 110/121/41 113/130/41 103/109/41
f 110/121/41 109/122/41 114/129/41
f 109/123/24 91/87/24 114/131/24
f 114/129/41 115/132/41 112/124/41
f 114/131/52 116/133/52 115/134/52
f 114/131/39 91/87/39 116/133/39
f 116/135/41 117/136/41 112/124/41
f 91/87/21 117/137/21 116/133/21
f 112/124/41 115/132/41 116/135/41
f 117/136/41 118/138/41 119/139/41
f 117/137/41 120/140/41 118/141/41
f 117/137/20 91/87/20 120/140/20
f 117/136/41 119/139/41 112/124/41
f 120/142/41 121/143/41 119/139/41
f 120/140/19 91/87/19 121/144/19
f 119/139/41 118/138/41 120/142/41
f 122/145/18 121/144/18 91/87/18
f 121/143/41 122/146/41 123/147/41
f 121/143/41 123/147/41 119/139/41
f 126/148/41 124/149/41 123/147/41
f 124/150/53 79/74/53 123/151/53
f 123/151/54 79/74/54 127/152/54
f 123/147/41 125/153/12 132/154/41
f 125/153/41 123/147/41 122/146/41
f 126/148/41 123/147/41 131/155/41
f 123/147/41 127/156/41 119/139/41
f 123/147/41 132/154/41 128/157/41
f 128/157/41 130/158/41 123/147/41
f 123/147/41 129/159/41 131/155/41
f 130/158/41 129/159/41 123/147/41
f 91/87/55 132/160/12 125/161/55
f 128/162/17 132/160/17 91/87/17
f 91/87/56 131/163/56 129/164/56
f 126/148/41 131/155/41 133/165/41
f 131/163/16 91/87/16 133/166/16
f 133/166/15 91/87/15 134/167/15
f 126/148/41 133/165/41 134/168/41
f 137/169/38 134/167/38 91/87/38
f 137/169/57 135/170/57 134/167/57
f 134/168/41 135/171/41 136/172/41
f 134/168/41 136/172/41 126/148/41
f 138/173/11 137/169/11 91/87/11
f 137/174/41 138/175/41 136/172/41
f 136/172/41 135/171/41 137/174/41
f 141/176/10 138/173/10 91/87/10
f 141/176/41 139/177/41 138/173/41
f 138/175/41 139/178/41 140/179/41
f 138/175/41 140/179/41 136/172/41
f 140/179/41 139/178/41 141/180/41
f 142/181/9 141/176/9 91/87/9
f 141/180/41 142/182/41 140/179/41
f 145/183/8 142/181/8 91/87/8
f 145/183/41 143/184/41 142/181/41
f 142/182/41 143/185/41 144/186/41
f 142/182/41 144/186/41 140/179/41
f 146/187/7 145/183/7 91/87/7
f 145/188/41 144/186/41 143/185/41
f 145/188/41 146/189/41 144/186/41
f 147/190/7 146/187/7 91/87/7
f 144/186/41 146/189/41 147/191/41
f 144/186/41 147/191/41 148/192/41
f 148/193/7 147/190/7 91/87/7
f 144/186/41 148/192/41 149/194/41
f 91/87/58 149/195/58 148/193/58
f 151/196/41 149/194/41 150/197/41
f 150/198/6 149/195/6 91/87/6
f 151/196/41 144/186/41 149/194/41
f 152/199/41 151/196/41 153/200/41
f 152/201/59 79/74/59 151/202/59
f 155/203/41 153/200/41 151/196/41
f 154/204/41 144/186/41 151/196/41
f 151/202/60 79/74/60 154/205/60
f 151/196/41 150/197/41 155/203/41
f 155/203/41 156/206/41 153/200/41
f 155/207/41 157/208/41 156/209/41
f 155/207/4 91/87/4 157/208/4
f 155/207/5 150/198/5 91/87/5
f 157/210/41 158/211/41 153/200/41
f 158/212/3 157/208/3 91/87/3
f 153/200/41 156/206/41 157/210/41
f 158/211/41 159/213/41 78/71/41
f 158/212/14 160/214/14 159/215/14
f 158/212/2 91/87/2 160/214/2
f 158/211/41 78/71/41 153/200/41
f 160/216/41 89/80/41 78/71/41
f 89/217/1 160/214/1 91/87/1
f 78/71/41 159/213/41 160/216/41
f 154/205/61 79/74/61 144/218/61
f 161/219/41 153/200/41 78/71/41
f 153/220/62 161/221/62 79/74/62
f 152/201/63 153/220/63 79/74/63
f 161/221/64 78/72/64 79/74/64
f 144/186/41 162/222/41 140/179/41
f 144/218/65 79/74/65 162/223/65
f 162/223/66 79/74/66 140/224/66
f 140/179/41 163/225/41 136/172/41
f 140/224/67 79/74/67 163/226/67
f 163/226/68 79/74/68 136/227/68
f 136/172/41 164/228/41 126/148/41
f 136/227/69 79/74/69 164/229/69
f 164/229/70 79/74/70 126/230/70
f 91/87/17 129/164/17 130/231/17
f 130/231/17 128/162/17 91/87/17
f 79/74/71 119/232/71 127/152/71
f 126/230/72 79/74/72 124/150/72
f 91/87/18 125/161/18 122/145/18
f 79/74/73 165/233/73 119/232/73
f 119/139/41 165/234/41 112/124/41
f 79/74/74 112/235/74 165/233/74
f 103/236/75 113/128/75 79/74/75
f 79/74/76 111/127/76 112/235/76
f 166/237/77 103/236/77 79/74/77
f 103/109/41 166/238/41 99/102/41
f 99/239/78 166/237/78 79/74/78
f 167/240/79 99/239/79 79/74/79
f 167/241/41 95/95/41 99/102/41
f 95/242/80 167/240/80 79/74/80
f 168/243/81 95/242/81 79/74/81
f 168/244/41 82/77/41 95/95/41
f 79/74/82 82/245/82 168/243/82
f 91/87/83 88/246/36 83/247/83
f 88/246/34 91/87/34 84/248/34
f 85/249/35 89/217/35 91/87/35
f 84/248/34 91/87/34 87/250/34
f 86/89/34 87/250/34 91/87/34
f 91/87/35 83/247/35 85/249/35
f 79/74/84 81/78/84 82/245/84
usemtl Material.003
f 1/251/12 2/252/12 4/253/12
f 2/252/85 1/251/85 5/254/85
f 1/251/85 3/255/85 5/254/85
f 1/251/14 19/256/14 16/257/14
f 3/255/36 6/258/36 5/254/36
f 2/252/41 32/259/41 34/260/41
f 7/261/41 60/262/41 59/263/41
f 7/264/86 6/265/86 8/266/86
f 3/255/36 8/267/36 6/258/36
f 3/255/14 63/268/14 62/269/14
f 4/253/86 7/264/86 8/266/86
f 2/252/12 7/264/12 4/253/12
f 12/270/14 26/271/14 3/255/14
f 4/272/87 24/273/87 23/274/87
f 4/272/14 23/274/14 22/275/14
f 13/276/14 12/270/14 3/255/14
f 11/277/14 13/276/14 3/255/14
f 4/272/14 22/275/14 20/278/14
f 4/272/14 20/278/14 21/279/14
f 10/280/14 11/277/14 3/255/14
f 10/280/14 3/255/14 1/251/14
f 4/272/14 21/279/14 25/281/14
f 1/251/14 4/272/14 25/281/14
f 9/282/14 10/280/14 1/251/14
f 15/283/14 9/282/14 1/251/14
f 1/251/14 25/281/14 17/284/14
f 1/251/14 17/284/14 18/285/14
f 14/286/14 15/283/14 1/251/14
f 16/257/14 14/286/14 1/251/14
f 1/251/14 18/285/14 19/256/14
f 6/287/41 38/288/41 39/289/41
f 6/287/41 39/289/41 42/290/41
f 6/287/41 42/290/41 40/291/41
f 6/287/41 40/291/41 41/292/41
f 5/254/41 6/287/41 41/292/41
f 5/254/41 41/292/41 37/293/41
f 5/254/41 37/293/41 36/294/41
f 5/254/41 36/294/41 35/295/41
f 5/254/41 35/295/41 43/296/41
f 5/254/41 43/296/41 30/297/41
f 5/254/41 30/297/41 31/298/41
f 5/254/41 31/298/41 29/299/41
f 5/254/41 29/299/41 28/300/41
f 2/252/41 5/254/41 28/300/41
f 2/252/41 28/300/41 27/301/41
f 2/252/41 27/301/41 33/302/41
f 2/252/41 33/302/41 32/259/41
f 34/260/12 44/303/13 2/252/14
f 2/252/41 44/303/41 46/304/41
f 2/252/41 46/304/41 45/305/41
f 57/306/36 38/288/88 6/287/89
f 56/307/41 57/306/41 6/287/41
f 2/252/41 45/305/41 47/308/41
f 2/252/41 47/308/41 51/309/41
f 58/310/41 56/307/41 6/287/41
f 53/311/41 58/310/41 6/287/41
f 7/261/41 2/252/41 51/309/41
f 7/261/41 51/309/41 50/312/41
f 52/313/41 53/311/41 6/287/41
f 52/313/41 6/287/41 7/261/41
f 7/261/41 50/312/41 49/314/41
f 7/261/41 49/314/41 48/315/41
f 54/316/41 52/313/41 7/261/41
f 55/317/41 54/316/41 7/261/41
f 7/261/41 48/315/41 60/262/41
f 59/263/41 55/317/41 7/261/41
f 76/318/14 24/273/14 4/272/14
f 72/319/14 76/318/14 4/272/14
f 71/320/14 72/319/14 4/272/14
f 69/321/14 71/320/14 4/272/14
f 69/321/14 4/272/14 8/322/14
f 70/323/14 69/321/14 8/322/14
f 75/324/14 70/323/14 8/322/14
f 73/325/14 75/324/14 8/322/14
f 74/326/14 73/325/14 8/322/14
f 66/327/14 74/326/14 8/322/14
f 65/328/14 66/327/14 8/322/14
f 64/329/14 65/328/14 8/322/14
f 68/330/14 64/329/14 8/322/14
f 68/330/14 8/322/14 3/255/14
f 67/331/14 68/330/14 3/255/14
f 61/332/14 67/331/14 3/255/14
f 62/269/14 61/332/14 3/255/14
f 3/255/14 26/271/36 63/268/14
