# Blender 4.1.1
# www.blender.org
mtllib square.mtl
o Cube
v -1.000000 0.071429 1.000000
v -1.000000 -0.071429 1.000000
v -1.000000 0.071429 -1.000000
v -1.000000 -0.071429 -1.000000
v 1.000000 0.071429 1.000000
v 1.000000 -0.071429 1.000000
v 1.000000 0.071429 -1.000000
v 1.000000 -0.071429 -1.000000
v -0.722417 0.071429 -0.722417
v 0.722417 0.071429 0.722417
v -0.722417 0.071429 0.722417
v -0.722417 -0.071429 0.722417
v 0.722417 -0.071429 0.722417
v 0.722417 -0.071429 -0.722417
v 0.722417 0.071429 -0.722417
v -0.722417 -0.071429 -0.722417
v 0.722417 -0.070592 -0.720986
v 0.722417 1.374243 -0.720986
v 0.689892 1.292190 -0.688461
v 0.722417 -0.070592 0.723849
v 0.722417 1.374243 0.723849
v 0.689892 1.292190 0.691324
v -0.722417 -0.070592 -0.720986
v -0.722417 1.374243 -0.720986
v -0.689892 1.292190 -0.688461
v -0.722417 -0.070592 0.723849
v -0.722417 1.374243 0.723849
v -0.689892 1.292190 0.691324
v -0.689892 -0.070592 -0.688461
v 0.689892 -0.070592 0.691324
v -0.689892 -0.070592 0.691324
v 0.689892 -0.070592 -0.688461
vn -0.0000 1.0000 -0.0000
vn -0.0000 -0.0000 -1.0000
vn 1.0000 -0.0000 -0.0000
vn -0.0000 -1.0000 -0.0000
vn -1.0000 -0.0000 -0.0000
vn -0.0000 -0.0000 1.0000
vt 0.500000 0.500000
vt 0.702325 0.532606
vt 0.532606 0.532606
vt 0.500000 0.734931
vt 0.265069 0.969863
vt 0.265069 0.734931
vt 0.500000 0.030137
vt 0.265069 0.265069
vt 0.265069 0.030137
vt 0.030137 0.500000
vt 0.232462 0.532606
vt 0.062744 0.532606
vt 0.265069 0.500000
vt 0.500000 0.265069
vt 0.734931 0.734931
vt 0.532606 0.702325
vt 0.702325 0.702325
vt 0.500000 0.969863
vt 0.062744 0.702325
vt 0.232462 0.702325
vt 0.000000 0.000000
vt 1.000000 1.000000
vt 0.000000 1.000000
vt 1.000000 0.000000
vt 1.000000 0.500000
vt 0.853553 0.146447
vt 0.146447 0.853553
vt 0.734931 0.500000
vt 0.030137 0.734931
vt 0.500000 1.000000
vt 0.853553 0.853553
vt 0.500000 0.000000
vt 0.146447 0.146447
vt 0.000000 0.500000
s 0
usemtl Material.002
f 1/1/1 10/2/1 11/3/1
f 3/4/2 8/5/2 4/6/2
f 7/7/3 6/8/3 8/9/3
f 6/10/4 12/11/4 13/12/4
f 1/1/5 4/6/5 2/13/5
f 5/14/6 2/13/6 6/8/6
f 7/15/1 9/16/1 15/17/1
f 3/4/2 7/18/2 8/5/2
f 7/7/3 5/14/3 6/8/3
f 4/6/4 14/19/4 16/20/4
f 1/1/5 3/4/5 4/6/5
f 5/14/6 1/1/6 2/13/6
f 11/3/1 9/16/1 3/4/1
f 1/1/1 5/28/1 10/2/1
f 11/3/1 3/4/1 1/1/1
f 14/19/4 8/29/4 6/10/4
f 6/10/4 2/13/4 12/11/4
f 13/12/4 14/19/4 6/10/4
f 15/17/1 10/2/1 5/28/1
f 7/15/1 3/4/1 9/16/1
f 15/17/1 5/28/1 7/15/1
f 12/11/4 2/13/4 4/6/4
f 4/6/4 8/29/4 14/19/4
f 16/20/4 12/11/4 4/6/4
usemtl マテリアル.008
f 17/21/3 21/22/3 20/23/3
f 21/24/6 26/23/6 20/21/6
f 27/24/5 23/23/5 26/21/5
f 24/24/2 17/23/2 23/21/2
f 20/25/4 26/26/4 30/27/4
f 17/24/4 29/23/4 23/21/4
f 21/24/1 24/23/1 27/21/1
f 17/21/3 18/24/3 21/22/3
f 21/24/6 27/22/6 26/23/6
f 27/24/5 24/22/5 23/23/5
f 24/24/2 18/22/2 17/23/2
f 30/27/4 32/30/4 17/31/4
f 26/26/4 23/32/4 29/33/4
f 26/26/4 29/33/4 31/34/4
f 30/27/4 17/31/4 20/25/4
f 26/26/4 31/34/4 30/27/4
f 17/24/4 32/22/4 29/23/4
f 21/24/1 18/22/1 24/23/1
usemtl 
f 10/21/5 14/21/5 13/21/5
f 10/21/2 12/21/2 11/21/2
f 11/21/3 16/21/3 9/21/3
f 16/21/6 15/21/6 9/21/6
f 10/21/5 15/21/5 14/21/5
f 10/21/2 13/21/2 12/21/2
f 11/21/3 12/21/3 16/21/3
f 16/21/6 14/21/6 15/21/6
usemtl 
f 22/24/5 32/23/5 30/21/5
f 28/24/2 30/23/2 31/21/2
f 29/21/3 28/22/3 31/23/3
f 19/24/6 29/23/6 32/21/6
f 25/24/4 22/23/4 28/21/4
f 22/24/5 19/22/5 32/23/5
f 28/24/2 22/22/2 30/23/2
f 29/21/3 25/24/3 28/22/3
f 19/24/6 25/22/6 29/23/6
f 25/24/4 19/22/4 22/23/4
