# Blender 4.1.1
# www.blender.org
mtllib tipSquare.mtl
o Cube
v -0.961577 1.037078 0.961577
v -0.961577 0.899710 0.961577
v -0.961577 1.037078 -0.961577
v -0.961577 0.899709 -0.961577
v 0.961577 1.037078 0.961577
v 0.961577 0.899710 0.961577
v 0.961577 1.037078 -0.961577
v 0.961577 0.899709 -0.961577
v -0.694659 1.037078 -0.694659
v 0.694659 1.037078 0.694659
v -0.694659 1.037078 0.694659
v -0.694659 0.899710 0.694659
v 0.694659 0.899710 0.694659
v 0.694659 0.899709 -0.694659
v 0.694659 1.037078 -0.694659
v -0.694659 0.899709 -0.694659
v 0.694659 0.900514 -0.693283
v 0.694659 2.289834 -0.693283
v 0.663384 2.210934 -0.662008
v 0.694659 0.900514 0.696036
v 0.694659 2.289834 0.696036
v 0.663384 2.210934 0.664761
v -0.694659 0.900514 -0.693283
v -0.694659 2.289834 -0.693284
v -0.663384 2.210934 -0.662008
v -0.694659 0.900514 0.696036
v -0.694659 2.289834 0.696036
v -0.663384 2.210934 0.664761
v -0.663384 0.900514 -0.662008
v 0.663384 0.900514 0.664761
v -0.663384 0.900514 0.664761
v 0.663384 0.900514 -0.662008
vn -1.0000 -0.0000 -0.0000
vn 1.0000 -0.0000 -0.0000
vn -0.0000 -0.0000 1.0000
vn -0.0000 -0.0000 -1.0000
vn -0.0000 1.0000 -0.0000
vn -0.0000 -1.0000 -0.0000
vt 0.213164 0.524162
vt 0.201645 0.362903
vt 0.213164 0.362903
vt 0.213164 0.201645
vt 0.201645 0.040387
vt 0.213164 0.040387
vt 0.201645 0.201645
vt 0.150267 0.877444
vt 0.040387 0.766193
vt 0.150267 0.766193
vt 0.213164 0.685420
vt 0.201645 0.524162
vt 0.352041 0.501781
vt 0.374422 0.524162
vt 0.179264 0.385285
vt 0.374422 0.362903
vt 0.235545 0.385285
vt 0.062768 0.501781
vt 0.040387 0.362903
vt 0.062768 0.385285
vt 0.571691 0.581211
vt 0.455195 0.464715
vt 0.571691 0.464715
vt 0.571691 0.778480
vt 0.455195 0.661984
vt 0.571691 0.661984
vt 0.768960 0.581211
vt 0.652464 0.464715
vt 0.768960 0.464715
vt 0.457818 0.381319
vt 0.455195 0.267446
vt 0.457818 0.270068
vt 0.768960 0.661984
vt 0.652464 0.778480
vt 0.652464 0.661984
vt 0.455195 0.186672
vt 0.480205 0.057071
vt 0.473721 0.167882
vt 0.584430 0.159829
vt 0.599422 0.171698
vt 0.587965 0.052008
vt 0.599422 0.040387
vt 0.468124 0.042247
vt 0.849733 0.464715
vt 0.959613 0.575966
vt 0.849733 0.575966
vt 0.571691 0.267446
vt 0.571691 0.383942
vt 0.569069 0.270068
vt 0.849733 0.267446
vt 0.959613 0.378697
vt 0.849733 0.378697
vt 0.791447 0.040387
vt 0.680196 0.151638
vt 0.680196 0.040387
vt 0.340920 0.766193
vt 0.231040 0.877444
vt 0.231040 0.766193
vt 0.768960 0.267446
vt 0.652464 0.383942
vt 0.652464 0.267446
vt 0.040387 0.877444
vt 0.201645 0.685420
vt 0.235545 0.501781
vt 0.352041 0.385285
vt 0.040387 0.524162
vt 0.179264 0.501781
vt 0.455195 0.581211
vt 0.455195 0.778480
vt 0.652464 0.581211
vt 0.455195 0.383942
vt 0.768960 0.778480
vt 0.959613 0.464715
vt 0.569069 0.381319
vt 0.457818 0.270068
vt 0.455195 0.267446
vt 0.959613 0.267446
vt 0.791447 0.151638
vt 0.340920 0.877444
vt 0.768960 0.383942
s 0
usemtl Material.004
f 3/1/1 2/2/1 1/3/1
f 5/4/2 8/5/2 7/6/2
f 1/3/3 6/7/3 5/4/3
f 7/11/4 4/12/4 3/1/4
f 3/1/5 15/13/5 7/14/5
f 2/2/6 4/12/6 12/15/6
f 5/16/5 11/17/5 1/3/5
f 14/18/6 6/19/6 13/20/6
f 3/1/1 4/12/1 2/2/1
f 5/4/2 6/7/2 8/5/2
f 1/3/3 2/2/3 6/7/3
f 7/11/4 8/63/4 4/12/4
f 3/1/5 1/3/5 11/17/5
f 3/1/5 11/17/5 9/64/5
f 10/65/5 5/16/5 7/14/5
f 3/1/5 9/64/5 15/13/5
f 15/13/5 10/65/5 7/14/5
f 4/12/6 8/66/6 14/18/6
f 4/12/6 14/18/6 16/67/6
f 13/20/6 6/19/6 2/2/6
f 4/12/6 16/67/6 12/15/6
f 12/15/6 13/20/6 2/2/6
f 5/16/5 10/65/5 11/17/5
f 14/18/6 8/66/6 6/19/6
usemtl マテリアル.008
f 18/21/2 20/22/2 17/23/2
f 18/24/5 27/25/5 21/26/5
f 24/27/1 26/28/1 27/29/1
f 31/30/6 23/31/6 29/32/6
f 27/33/3 20/34/3 21/35/3
f 17/47/6 20/48/6 32/49/6
f 18/59/4 23/60/4 24/61/4
f 18/21/2 21/68/2 20/22/2
f 18/24/5 24/69/5 27/25/5
f 24/27/1 23/70/1 26/28/1
f 31/30/6 26/71/6 23/31/6
f 27/33/3 26/72/3 20/34/3
f 20/48/6 26/71/6 31/30/6
f 20/48/6 31/30/6 30/74/6
f 29/75/6 23/76/6 17/47/6
f 20/48/6 30/74/6 32/49/6
f 32/49/6 29/75/6 17/47/6
f 18/59/4 17/80/4 23/60/4
usemtl マテリアル
f 19/8/1 30/9/1 22/10/1
f 10/36/1 14/37/1 13/38/1
f 10/36/4 12/39/4 11/40/4
f 11/40/2 16/41/2 9/42/2
f 16/41/3 15/43/3 9/42/3
f 10/36/1 15/43/1 14/37/1
f 10/36/4 13/38/4 12/39/4
f 11/40/2 12/39/2 16/41/2
f 16/41/3 14/37/3 15/43/3
f 25/44/3 32/45/3 19/46/3
f 22/50/4 31/51/4 28/52/4
f 19/53/6 28/54/6 25/55/6
f 25/56/2 31/57/2 29/58/2
f 19/8/1 32/62/1 30/9/1
f 25/44/3 29/73/3 32/45/3
f 22/50/4 30/77/4 31/51/4
f 19/53/6 22/78/6 28/54/6
f 25/56/2 28/79/2 31/57/2
